HIERARCHY
ROOT root
{
	OFFSET	0	13.1	24.9
	CHANNELS 6  Xposition Yposition Zposition Xrotation Yrotation Zrotation
	JOINT spine_1
	{
		OFFSET	0	9.99999	0
		CHANNELS 3  Xrotation Yrotation Zrotation
		JOINT spine_2
		{
			OFFSET	0	112	-10
			CHANNELS 3  Xrotation Yrotation Zrotation
			JOINT spine_3
			{
				OFFSET	0	206.5	19.3
				CHANNELS 3  Xrotation Yrotation Zrotation
				JOINT spine_4
				{
					OFFSET	0	110.4	14.6
					CHANNELS 3  Xrotation Yrotation Zrotation
					JOINT neck_1
					{
						OFFSET	0	71.8	-50.3
						CHANNELS 3  Xrotation Yrotation Zrotation
						JOINT neck_2
						{
							OFFSET	0	86.2	-25.8
							CHANNELS 3  Xrotation Yrotation Zrotation
							JOINT head_ee
							{
								OFFSET	0	179.8	-8.7
								CHANNELS 3  Xrotation Yrotation Zrotation
								End Site
								{
									OFFSET	1	0	0
								}
							}
						}
					}
					JOINT left_clavicle
					{
						OFFSET	-43.2	22.4	-70.8
						CHANNELS 3  Xrotation Yrotation Zrotation
						JOINT left_shoulder
						{
							OFFSET	-93.9	-5.79999	48.7
							CHANNELS 3  Xrotation Yrotation Zrotation
							JOINT left_elbow
							{
								OFFSET	-291.4	-30.8	15.2
								CHANNELS 3  Xrotation Yrotation Zrotation
								JOINT left_lowarm_twist
								{
									OFFSET	-110.7	-3.89999	13.6
									CHANNELS 3  Xrotation Yrotation Zrotation
									JOINT left_hand
									{
										OFFSET	-110.7	-3.89999	13.6
										CHANNELS 3  Xrotation Yrotation Zrotation
										JOINT left_ee
										{
											OFFSET	-80.8	-5.10001	12.1
											CHANNELS 3  Xrotation Yrotation Zrotation
											End Site
											{
												OFFSET	1	0	0
											}
										}
									}
								}
							}
						}
					}
					JOINT right_clavicle
					{
						OFFSET	43.2	22.4	-70.8
						CHANNELS 3  Xrotation Yrotation Zrotation
						JOINT right_shoulder
						{
							OFFSET	93.9	-5.79999	48.7
							CHANNELS 3  Xrotation Yrotation Zrotation
							JOINT right_elbow
							{
								OFFSET	291.4	-30.8	15.2
								CHANNELS 3  Xrotation Yrotation Zrotation
								JOINT right_lowarm_twist
								{
									OFFSET	110.7	-3.89999	13.6
									CHANNELS 3  Xrotation Yrotation Zrotation
									JOINT right_hand
									{
										OFFSET	110.7	-3.89999	13.6
										CHANNELS 3  Xrotation Yrotation Zrotation
										JOINT right_ee
										{
											OFFSET	80.8	-5.10001	12.1
											CHANNELS 3  Xrotation Yrotation Zrotation
											End Site
											{
												OFFSET	1	0	0
											}
										}
									}
								}
							}
						}
					}
				}
			}
		}
	}
	JOINT left_hip
	{
		OFFSET	-82.8	-127.5	0.300001
		CHANNELS 3  Xrotation Yrotation Zrotation
		JOINT left_knee
		{
			OFFSET	-28.2	-396.7	2.2
			CHANNELS 3  Xrotation Yrotation Zrotation
			JOINT left_ankle
			{
				OFFSET	-11.7	-411.3	35.4
				CHANNELS 3  Xrotation Yrotation Zrotation
				JOINT left_toes
				{
					OFFSET	0	-60	-88.6
					CHANNELS 3  Xrotation Yrotation Zrotation
					JOINT left_foot_ee
					{
						OFFSET	-22.5	-16.5	-42.2
						CHANNELS 3  Xrotation Yrotation Zrotation
						End Site
						{
							OFFSET	1	0	0
						}
					}
				}
			}
		}
	}
	JOINT right_hip
	{
		OFFSET	82.8	-127.5	0.300001
		CHANNELS 3  Xrotation Yrotation Zrotation
		JOINT right_knee
		{
			OFFSET	28.2	-396.7	2.2
			CHANNELS 3  Xrotation Yrotation Zrotation
			JOINT right_ankle
			{
				OFFSET	11.7	-411.3	35.4
				CHANNELS 3  Xrotation Yrotation Zrotation
				JOINT right_toes
				{
					OFFSET	0	-60	-88.6
					CHANNELS 3  Xrotation Yrotation Zrotation
					JOINT right_foot_ee
					{
						OFFSET	22.5	-16.5	-42.2
						CHANNELS 3  Xrotation Yrotation Zrotation
						End Site
						{
							OFFSET	1	0	0
						}
					}
				}
			}
		}
	}
}
MOTION
Frames: 9
Frame Time: 0.02
3601.90157239 718.972 -1612.52763452 -9.01227393734 -17.4992666383 -7.03621449551 4.89594 0.0503575 1.40664 4.89704 -0.0392438 1.407 4.89517 -0.216235 1.39084 4.89247 0.00611318 1.40753 -13.4259 17.0158 3.42108 -14.1056 30.3445 8.72487 -0.0 0.0 -0.0 -4.65586 17.649 -5.11093 -5.22075 -33.8951 55.8415 4.00147 -63.2116 2.4629 14.5875 0.281455 -1.83715 0.0939127 -14.9741 -5.74148 -0.0 0.0 -0.0 4.28191 3.30814 -8.1006 -41.0089 43.021 -58.4661 0.717854 19.5756 -0.123839 28.3669 -0.113936 3.58507 -2.35987 -27.3388 2.22565 0.0 0.0 0.0 26.27 4.36783 -8.7878 -3.38744 0.124575 0.504864 33.1516 5.44382 -4.21556 -38.7832 0.0 0.0 -0.0 0.0 -0.0 11.0714 -15.4928 10.5402 -12.4908 -0.309525 -1.88813 36.9805 32.6191 5.8038 -7.26109 0.0 0.0 0.0 0.0 0.0 
3606.15046997 718.972 -1611.6117087 -9.10497382169 -19.2495911306 -7.33025441617 4.89594 0.0503575 1.40664 4.89704 -0.0392438 1.407 4.89517 -0.216235 1.39084 4.89247 0.00611318 1.40753 -13.4259 17.0158 3.42108 -14.1056 30.3445 8.72487 -0.0 0.0 -0.0 -4.65586 17.649 -5.11093 -5.22075 -33.8951 55.8415 4.00147 -63.2116 2.4629 14.5875 0.281455 -1.83715 0.0939127 -14.9741 -5.74148 -0.0 0.0 -0.0 4.28191 3.30814 -8.1006 -41.0089 43.021 -58.4661 0.717854 19.5756 -0.123839 28.3669 -0.113936 3.58507 -2.35987 -27.3388 2.22565 0.0 0.0 0.0 26.27 4.36783 -8.7878 -3.38744 0.124575 0.504864 33.1516 5.44382 -4.21556 -38.7832 0.0 0.0 -0.0 0.0 -0.0 11.0714 -15.4928 10.5402 -12.4908 -0.309525 -1.88813 36.9805 32.6191 5.8038 -7.26109 0.0 0.0 0.0 0.0 0.0 
3603.19050556 718.972 -1612.26429721 -9.03923571177 -18.0290670947 -7.12458388609 4.89594 0.0503575 1.40664 4.89704 -0.0392438 1.407 4.89517 -0.216235 1.39084 4.89247 0.00611318 1.40753 -13.4259 17.0158 3.42108 -14.1056 30.3445 8.72487 -0.0 0.0 -0.0 -4.65586 17.649 -5.11093 -5.22075 -33.8951 55.8415 4.00147 -63.2116 2.4629 14.5875 0.281455 -1.83715 0.0939127 -14.9741 -5.74148 -0.0 0.0 -0.0 4.28191 3.30814 -8.1006 -41.0089 43.021 -58.4661 0.717854 19.5756 -0.123839 28.3669 -0.113936 3.58507 -2.35987 -27.3388 2.22565 0.0 0.0 0.0 26.27 4.36783 -8.7878 -3.38744 0.124575 0.504864 33.1516 5.44382 -4.21556 -38.7832 0.0 0.0 -0.0 0.0 -0.0 11.0714 -15.4928 10.5402 -12.4908 -0.309525 -1.88813 36.9805 32.6191 5.8038 -7.26109 0.0 0.0 0.0 0.0 0.0 
3597.7808049 718.972 -1613.28575663 -8.93254989692 -15.8115962154 -6.7580882745 4.89594 0.0503575 1.40664 4.89704 -0.0392438 1.407 4.89517 -0.216235 1.39084 4.89247 0.00611318 1.40753 -13.4259 17.0158 3.42108 -14.1056 30.3445 8.72487 -0.0 0.0 -0.0 -4.65586 17.649 -5.11093 -5.22075 -33.8951 55.8415 4.00147 -63.2116 2.4629 14.5875 0.281455 -1.83715 0.0939127 -14.9741 -5.74148 -0.0 0.0 -0.0 4.28191 3.30814 -8.1006 -41.0089 43.021 -58.4661 0.717854 19.5756 -0.123839 28.3669 -0.113936 3.58507 -2.35987 -27.3388 2.22565 0.0 0.0 0.0 26.27 4.36783 -8.7878 -3.38744 0.124575 0.504864 33.1516 5.44382 -4.21556 -38.7832 0.0 0.0 -0.0 0.0 -0.0 11.0714 -15.4928 10.5402 -12.4908 -0.309525 -1.88813 36.9805 32.6191 5.8038 -7.26109 0.0 0.0 0.0 0.0 0.0 
3589.55893642 718.972 -1614.42336958 -8.80107344415 -12.4669906872 -6.22010114058 4.89594 0.0503575 1.40664 4.89704 -0.0392438 1.407 4.89517 -0.216235 1.39084 4.89247 0.00611318 1.40753 -13.4259 17.0158 3.42108 -14.1056 30.3445 8.72487 -0.0 0.0 -0.0 -4.65586 17.649 -5.11093 -5.22075 -33.8951 55.8415 4.00147 -63.2116 2.4629 14.5875 0.281455 -1.83715 0.0939127 -14.9741 -5.74148 -0.0 0.0 -0.0 4.28191 3.30814 -8.1006 -41.0089 43.021 -58.4661 0.717854 19.5756 -0.123839 28.3669 -0.113936 3.58507 -2.35987 -27.3388 2.22565 0.0 0.0 0.0 26.27 4.36783 -8.7878 -3.38744 0.124575 0.504864 33.1516 5.44382 -4.21556 -38.7832 0.0 0.0 -0.0 0.0 -0.0 11.0714 -15.4928 10.5402 -12.4908 -0.309525 -1.88813 36.9805 32.6191 5.8038 -7.26109 0.0 0.0 0.0 0.0 0.0 
3582.2597109 718.972 -1615.02242258 -8.71274134689 -9.51506631166 -5.7569494069 4.89594 0.0503575 1.40664 4.89704 -0.0392438 1.407 4.89517 -0.216235 1.39084 4.89247 0.00611318 1.40753 -13.4259 17.0158 3.42108 -14.1056 30.3445 8.72487 -0.0 0.0 -0.0 -4.65586 17.649 -5.11093 -5.22075 -33.8951 55.8415 4.00147 -63.2116 2.4629 14.5875 0.281455 -1.83715 0.0939127 -14.9741 -5.74148 -0.0 0.0 -0.0 4.28191 3.30814 -8.1006 -41.0089 43.021 -58.4661 0.717854 19.5756 -0.123839 28.3669 -0.113936 3.58507 -2.35987 -27.3388 2.22565 0.0 0.0 0.0 26.27 4.36783 -8.7878 -3.38744 0.124575 0.504864 33.1516 5.44382 -4.21556 -38.7832 0.0 0.0 -0.0 0.0 -0.0 11.0714 -15.4928 10.5402 -12.4908 -0.309525 -1.88813 36.9805 32.6191 5.8038 -7.26109 0.0 0.0 0.0 0.0 0.0 
3475.29381213 724.64 -1763.34184137 -14.1235632309 -9.96596598781 -4.46511106223 6.28677 0.418865 1.7288 6.28838 0.308025 1.75194 6.29578 0.128352 1.77417 6.29162 0.406896 1.73165 -7.66955 18.4715 -0.727404 -7.77426 35.0062 3.35232 -0.0 0.0 -0.0 -2.21708 14.1741 -1.93396 -5.32161 -31.5982 51.7727 6.49311 -72.6953 4.78032 2.53002 0.0822461 -0.312655 0.887635 -7.93952 2.62365 -0.0 0.0 -0.0 2.29831 3.61058 -4.13409 -49.5342 42.5786 -62.891 0.379392 10.6442 -0.035343 42.0869 0.46224 5.2373 -0.0223431 -28.8517 -11.1697 0.0 0.0 0.0 28.3409 2.42214 -6.05063 -0.18928 0.00774754 0.0280137 11.5335 22.3046 -1.6842 -38.7728 0.0 0.0 -0.0 0.0 -0.0 0.240128 10.2922 12.8304 -3.16531 -0.117323 -0.471546 27.476 20.1364 4.03522 -6.94774 0.0 0.0 0.0 0.0 0.0 
3465.33031575 724.64 -1759.7251524 -14.0468347195 -8.0355470818 -3.97474103905 6.28677 0.418865 1.7288 6.28838 0.308025 1.75194 6.29578 0.128352 1.77417 6.29162 0.406896 1.73165 -7.66955 18.4715 -0.727404 -7.77426 35.0062 3.35232 -0.0 0.0 -0.0 -2.21708 14.1741 -1.93396 -5.32161 -31.5982 51.7727 6.49311 -72.6953 4.78032 2.53002 0.0822461 -0.312655 0.887635 -7.93952 2.62365 -0.0 0.0 -0.0 2.29831 3.61058 -4.13409 -49.5342 42.5786 -62.891 0.379392 10.6442 -0.035343 42.0869 0.46224 5.2373 -0.0223431 -28.8517 -11.1697 0.0 0.0 0.0 28.3409 2.42214 -6.05063 -0.18928 0.00774754 0.0280137 11.5335 22.3046 -1.6842 -38.7728 0.0 0.0 -0.0 0.0 -0.0 0.240128 10.2922 12.8304 -3.16531 -0.117323 -0.471546 27.476 20.1364 4.03522 -6.94774 0.0 0.0 0.0 0.0 0.0 
3454.94606608 724.64 -1755.53024077 -13.9841558115 -5.99523158701 -3.461636012 6.28677 0.418865 1.7288 6.28838 0.308025 1.75194 6.29578 0.128352 1.77417 6.29162 0.406896 1.73165 -7.66955 18.4715 -0.727404 -7.77426 35.0062 3.35232 -0.0 0.0 -0.0 -2.21708 14.1741 -1.93396 -5.32161 -31.5982 51.7727 6.49311 -72.6953 4.78032 2.53002 0.0822461 -0.312655 0.887635 -7.93952 2.62365 -0.0 0.0 -0.0 2.29831 3.61058 -4.13409 -49.5342 42.5786 -62.891 0.379392 10.6442 -0.035343 42.0869 0.46224 5.2373 -0.0223431 -28.8517 -11.1697 0.0 0.0 0.0 28.3409 2.42214 -6.05063 -0.18928 0.00774754 0.0280137 11.5335 22.3046 -1.6842 -38.7728 0.0 0.0 -0.0 0.0 -0.0 0.240128 10.2922 12.8304 -3.16531 -0.117323 -0.471546 27.476 20.1364 4.03522 -6.94774 0.0 0.0 0.0 0.0 0.0 
